<svg xmlns="http://www.w3.org/2000/svg" xmlns:xlink="http://www.w3.org/1999/xlink" width="378" zoomAndPan="magnify" viewBox="0 0 282.96 283.499996" height="378" preserveAspectRatio="xMidYMid meet" version="1.0"><defs><g/><clipPath id="id1"><path d="M 70.839844 109.109375 L 212.445312 109.109375 L 212.445312 169.746094 L 70.839844 169.746094 Z M 70.839844 109.109375 " clip-rule="nonzero"/></clipPath></defs><g fill="#626e58" fill-opacity="1"><g transform="translate(157.901164, 177.876121)"><g><path d="M 0 -37.078125 L 0 0 L 14.261719 0 L 14.261719 -25.339844 L 37.296875 -25.339844 C 56.054688 -25.449219 71.082031 -41.136719 71.082031 -60.550781 C 71.082031 -80.078125 56.054688 -95.765625 37.296875 -95.984375 L 0 -95.984375 L 0 -84.136719 L 37.078125 -84.136719 C 48.046875 -84.136719 56.933594 -73.496094 56.933594 -60.550781 C 56.933594 -47.71875 48.046875 -37.078125 37.078125 -37.078125 Z M 0 -37.078125 "/></g></g></g><g fill="#bed4a9" fill-opacity="1"><g transform="translate(78.079408, 177.876121)"><g><path d="M 48.15625 -95.984375 L 39.382812 -95.984375 L 0 0 L 14.371094 0 L 43.441406 -70.753906 L 43.660156 -71.523438 L 43.769531 -71.414062 L 43.769531 -71.523438 L 43.769531 -71.414062 L 43.769531 -71.523438 L 43.988281 -70.753906 L 73.167969 0 L 87.539062 0 Z M 48.15625 -95.984375 "/></g></g></g><g clip-path="url(#id1)"><path fill="#100f0d" d="M 141.429688 146.511719 C 139.554688 146.460938 137.707031 145.707031 136.3125 144.4375 C 135.972656 144.125 135.496094 144.652344 135.835938 144.964844 C 137.355469 146.347656 139.367188 147.164062 141.402344 147.226562 C 141.882812 147.226562 141.90625 146.523438 141.429688 146.511719 Z M 154.566406 141.398438 C 155.230469 138.359375 154.78125 135.082031 153.285156 132.332031 C 153.058594 131.917969 152.429688 132.257812 152.65625 132.671875 C 154.074219 135.269531 154.492188 138.375 153.863281 141.25 C 153.773438 141.714844 154.464844 141.863281 154.566406 141.398438 Z M 146.746094 138.597656 C 146.746094 141.386719 144.472656 143.660156 141.667969 143.660156 C 138.875 143.660156 136.601562 141.386719 136.601562 138.597656 C 136.601562 135.796875 138.875 133.539062 141.667969 133.539062 C 144.472656 133.539062 146.746094 135.796875 146.746094 138.597656 Z M 148.140625 144.0625 L 148.140625 147.101562 C 148.140625 148.269531 147.199219 149.222656 146.015625 149.222656 L 137.269531 149.222656 C 136.085938 149.222656 135.144531 148.269531 135.144531 147.101562 L 135.144531 143.988281 C 135.242188 144.113281 135.34375 144.238281 135.457031 144.363281 C 135.671875 144.011719 136.160156 143.8125 136.5625 144.1875 C 137.882812 145.394531 139.644531 146.109375 141.441406 146.160156 C 141.996094 146.171875 142.207031 146.664062 142.109375 147.050781 C 144.535156 146.925781 146.683594 145.796875 148.140625 144.0625 Z M 140.070312 123.667969 L 143.214844 123.667969 L 143.214844 128.0625 L 140.070312 128.0625 Z M 143.929688 123.890625 C 144.183594 124.105469 144.394531 124.546875 144.683594 125.425781 L 145.890625 129.015625 L 143.917969 128.0625 Z M 144.910156 123.390625 C 144.507812 122.863281 143.96875 122.613281 143.125 122.613281 L 142.914062 117.375 C 142.496094 117.347656 142.09375 117.335938 141.679688 117.335938 C 141.265625 117.335938 140.851562 117.347656 140.4375 117.375 L 140.222656 122.613281 C 139.34375 122.613281 138.789062 122.851562 138.375 123.390625 L 134.164062 123.414062 C 132.917969 124.03125 131.75 124.796875 130.691406 125.699219 L 136.816406 125.964844 C 137.28125 125.777344 137.757812 125.625 138.234375 125.5 C 138.363281 125.476562 138.472656 125.460938 138.574219 125.488281 L 138.601562 125.425781 C 138.890625 124.546875 139.101562 124.105469 139.367188 123.890625 L 139.367188 128.0625 L 137.40625 129.015625 L 138.074219 127.019531 C 137.632812 127.15625 137.203125 127.320312 136.777344 127.507812 L 135.128906 132.433594 C 136.175781 131.328125 137.507812 130.484375 138.964844 130.035156 C 139.859375 129.746094 140.285156 131.089844 139.378906 131.378906 C 137.683594 131.917969 136.160156 133.085938 135.230469 134.617188 C 134.992188 134.996094 134.601562 135.03125 134.3125 134.882812 L 134.101562 135.523438 C 133.949219 135.960938 133.722656 136.703125 133.722656 137.757812 L 133.722656 140.898438 C 133.722656 141.851562 132.980469 142.730469 132 142.644531 L 120.625 141.703125 C 120.914062 143.609375 121.441406 145.445312 122.207031 147.164062 L 125.6875 147.628906 C 125.386719 147.101562 125.109375 146.550781 124.859375 145.984375 C 124.484375 145.117188 125.777344 144.550781 126.15625 145.40625 C 126.53125 146.261719 126.984375 147.089844 127.5 147.867188 L 131.058594 148.34375 L 130.113281 150.996094 L 130.242188 151.09375 L 130.289062 151.144531 C 130.707031 151.523438 131.144531 151.886719 131.597656 152.214844 C 131.625 152.175781 131.648438 152.125 131.660156 152.074219 L 132.78125 148.796875 C 131.875 148.007812 131.070312 147.101562 130.402344 146.097656 C 129.875 145.320312 131.058594 144.539062 131.574219 145.320312 C 131.6875 145.480469 131.800781 145.644531 131.914062 145.808594 C 132.328125 146.359375 132.78125 146.863281 133.269531 147.339844 C 133.671875 147.730469 134.101562 148.082031 134.578125 148.433594 C 134.855469 148.621094 135.117188 148.796875 135.394531 148.972656 C 136.890625 149.863281 138.539062 150.429688 140.234375 150.632812 L 146.015625 150.632812 C 147.210938 150.632812 148.253906 150.054688 148.910156 149.148438 C 149.121094 148.910156 149.4375 148.734375 149.8125 148.671875 L 150.441406 148.582031 L 151.636719 152.085938 C 151.710938 152.300781 151.824219 152.464844 151.976562 152.550781 L 153.296875 156.421875 C 153.699219 156.15625 154.101562 155.878906 154.503906 155.578125 L 153.320312 152.101562 C 153.382812 151.9375 153.382812 151.734375 153.308594 151.523438 L 152.226562 148.359375 L 161.152344 147.164062 C 161.90625 145.445312 162.449219 143.609375 162.726562 141.703125 L 159.71875 141.953125 C 159.457031 143.382812 159.027344 144.789062 158.425781 146.136719 C 158.035156 147 156.753906 146.410156 157.128906 145.558594 C 157.632812 144.4375 158.011719 143.269531 158.261719 142.066406 L 154.679688 142.367188 C 154.539062 142.90625 154.351562 143.433594 154.113281 143.949219 C 153.75 144.816406 152.441406 144.261719 152.820312 143.398438 C 152.945312 143.09375 153.058594 142.792969 153.171875 142.492188 L 151.285156 142.65625 C 150.46875 142.71875 149.8125 142.117188 149.613281 141.363281 C 149.234375 141.3125 148.882812 140.984375 149.007812 140.484375 C 149.035156 140.371094 149.074219 140.246094 149.097656 140.117188 C 149.136719 139.96875 149.148438 139.828125 149.171875 139.691406 C 149.222656 139.339844 149.25 139.015625 149.25 138.6875 C 149.261719 137.734375 149.097656 136.777344 148.757812 135.886719 C 148.671875 135.671875 148.582031 135.460938 148.46875 135.246094 L 148.445312 135.195312 C 148.394531 135.09375 148.34375 134.996094 148.292969 134.894531 C 148.027344 134.441406 148.292969 134.027344 148.644531 133.890625 L 145.992188 125.976562 L 158.398438 125.460938 C 157.847656 124.757812 157.242188 124.09375 156.613281 123.464844 Z M 155.421875 128.101562 C 157.507812 130.8125 158.726562 134.164062 158.941406 137.582031 C 159.089844 140.359375 158.589844 143.160156 157.445312 145.695312 C 157.257812 146.136719 157.898438 146.421875 158.085938 145.996094 C 158.992188 144 159.507812 141.839844 159.644531 139.667969 C 159.644531 139.652344 159.644531 139.628906 159.644531 139.605469 C 159.683594 138.902344 159.683594 138.199219 159.644531 137.492188 C 159.570312 136.148438 159.332031 134.820312 158.953125 133.523438 C 158.953125 133.5 158.929688 133.476562 158.929688 133.460938 C 158.300781 131.378906 157.304688 129.394531 155.988281 127.660156 C 155.699219 127.285156 155.132812 127.722656 155.421875 128.101562 Z M 141.628906 137.191406 C 142.433594 137.191406 143.089844 137.847656 143.089844 138.648438 C 143.089844 139.453125 142.433594 140.105469 141.628906 140.105469 C 140.8125 140.105469 140.160156 139.453125 140.160156 138.648438 C 140.160156 137.832031 140.8125 137.191406 141.628906 137.191406 Z M 150.101562 140.445312 C 150.554688 138.460938 150.253906 136.300781 149.273438 134.503906 C 149.046875 134.089844 148.429688 134.429688 148.65625 134.84375 C 149.550781 136.488281 149.8125 138.472656 149.410156 140.292969 C 149.324219 140.757812 150.003906 140.910156 150.101562 140.445312 Z M 141.679688 160.453125 C 129.585938 160.453125 119.792969 150.667969 119.792969 138.597656 C 119.792969 126.515625 129.585938 116.734375 141.679688 116.734375 C 153.761719 116.734375 163.554688 126.515625 163.554688 138.597656 C 163.554688 150.667969 153.761719 160.453125 141.679688 160.453125 Z M 210.847656 137.667969 L 164.070312 141.574219 C 164.195312 140.609375 164.257812 139.605469 164.257812 138.597656 C 164.257812 133.664062 162.675781 129.105469 159.996094 125.386719 L 163.644531 125.234375 C 164.699219 125.210938 165.039062 124.796875 165.039062 124.34375 C 165.027344 123.90625 164.671875 123.492188 163.605469 123.503906 L 158.4375 123.476562 C 154.566406 119.171875 149.035156 116.382812 142.863281 116.054688 L 142.609375 110.050781 C 142.609375 109.425781 142.15625 109.109375 141.667969 109.109375 C 141.191406 109.109375 140.738281 109.425781 140.738281 110.050781 L 140.484375 116.054688 C 134.3125 116.382812 128.792969 119.171875 124.898438 123.476562 L 119.679688 123.503906 C 118.613281 123.492188 118.257812 123.890625 118.246094 124.34375 C 118.246094 124.796875 118.585938 125.210938 119.65625 125.234375 L 123.351562 125.386719 C 120.660156 129.105469 119.078125 133.664062 119.078125 138.597656 C 119.078125 139.605469 119.152344 140.609375 119.277344 141.589844 L 72.4375 137.667969 C 70.5625 137.417969 70.199219 140.230469 72.074219 140.46875 L 120.6875 146.964844 C 122.269531 150.933594 124.960938 154.335938 128.355469 156.824219 L 126.179688 163.214844 L 126.066406 163.214844 L 126.605469 158.003906 C 126.832031 155.894531 123.664062 155.566406 123.4375 157.675781 L 122.359375 167.988281 C 122.144531 170.097656 125.300781 170.425781 125.527344 168.3125 L 125.914062 164.632812 L 126.695312 164.632812 C 126.910156 164.632812 127.285156 164.359375 127.363281 164.15625 L 129.574219 157.652344 C 133.070312 159.875 137.21875 161.167969 141.679688 161.167969 C 146.105469 161.167969 150.242188 159.886719 153.734375 157.6875 L 155.921875 164.15625 C 156 164.371094 156.375 164.632812 156.601562 164.632812 L 157.371094 164.632812 L 157.757812 168.328125 C 157.984375 170.4375 161.152344 170.097656 160.925781 167.988281 L 159.847656 157.675781 C 159.621094 155.566406 156.453125 155.90625 156.679688 158.015625 L 157.230469 163.214844 L 157.105469 163.214844 L 154.941406 156.859375 C 158.375 154.375 161.066406 150.945312 162.660156 146.964844 L 211.214844 140.46875 C 213.085938 140.230469 212.722656 137.417969 210.847656 137.667969 Z M 125.375 132.785156 C 125.765625 131.667969 126.28125 130.585938 126.933594 129.53125 C 127.058594 129.316406 127.199219 129.117188 127.335938 128.902344 C 127.726562 128.339844 128.140625 127.785156 128.605469 127.257812 C 130.667969 124.882812 133.382812 123.089844 136.398438 122.132812 C 136.851562 121.984375 136.625 121.304688 136.175781 121.457031 C 135.015625 121.832031 133.886719 122.324219 132.828125 122.925781 C 132.792969 122.9375 132.765625 122.949219 132.730469 122.964844 C 130.996094 123.957031 129.4375 125.25 128.117188 126.742188 C 127.601562 127.332031 127.121094 127.949219 126.695312 128.589844 L 126.671875 128.640625 L 126.632812 128.675781 L 126.605469 128.742188 L 126.53125 128.839844 L 126.507812 128.890625 L 126.46875 128.941406 L 126.445312 128.980469 L 126.40625 129.042969 L 126.367188 129.09375 L 126.332031 129.15625 C 125.664062 130.222656 125.125 131.363281 124.695312 132.546875 C 124.546875 132.996094 125.210938 133.222656 125.375 132.785156 Z M 129.210938 125.125 C 129.675781 124.683594 130.164062 124.28125 130.679688 123.890625 C 130.707031 123.867188 130.742188 123.855469 130.769531 123.828125 C 130.957031 123.703125 131.144531 123.566406 131.335938 123.441406 L 126.734375 123.464844 C 126.089844 124.09375 125.5 124.757812 124.949219 125.460938 L 128.679688 125.613281 C 128.859375 125.449219 129.035156 125.285156 129.210938 125.125 Z M 137.65625 126.039062 C 135.597656 126.691406 133.699219 127.875 132.1875 129.429688 C 132.152344 129.457031 132.136719 129.480469 132.113281 129.507812 C 131.019531 130.648438 130.164062 131.941406 129.574219 133.300781 C 129.386719 133.738281 130.027344 134.015625 130.214844 133.589844 C 130.429688 133.085938 130.679688 132.609375 130.96875 132.132812 C 131.007812 132.082031 131.019531 132.054688 131.03125 132.03125 C 132.578125 129.507812 135.066406 127.609375 137.871094 126.707031 C 138.324219 126.566406 138.109375 125.890625 137.65625 126.039062 Z M 141.316406 151.070312 C 138.976562 151.007812 136.6875 150.253906 134.726562 148.972656 C 134.210938 148.621094 133.722656 148.246094 133.269531 147.816406 C 132.941406 147.527344 132.640625 147.226562 132.339844 146.902344 C 132.039062 146.550781 131.496094 147.015625 131.824219 147.367188 C 133.898438 149.703125 136.816406 151.257812 139.90625 151.660156 L 139.957031 151.671875 C 140.398438 151.722656 140.851562 151.761719 141.289062 151.773438 C 141.769531 151.785156 141.78125 151.082031 141.316406 151.070312 Z M 134.929688 134.429688 C 135.910156 132.820312 137.480469 131.605469 139.277344 131.039062 C 139.730469 130.902344 139.519531 130.222656 139.066406 130.371094 C 137.117188 130.988281 135.394531 132.320312 134.324219 134.066406 C 134.074219 134.46875 134.679688 134.832031 134.929688 134.429688 Z M 141.175781 155.878906 C 138.988281 155.816406 136.828125 155.339844 134.828125 154.472656 C 134.324219 154.261719 133.847656 154.023438 133.371094 153.769531 C 132.175781 153.117188 131.058594 152.328125 130.039062 151.410156 L 129.988281 151.347656 C 129.6875 151.082031 129.398438 150.792969 129.121094 150.492188 C 128.71875 150.078125 128.328125 149.625 127.976562 149.160156 C 127.121094 148.054688 126.394531 146.851562 125.828125 145.570312 C 125.640625 145.144531 124.996094 145.417969 125.1875 145.859375 C 125.992188 147.691406 127.121094 149.386719 128.492188 150.84375 C 128.808594 151.183594 129.148438 151.523438 129.484375 151.835938 C 129.523438 151.875 129.535156 151.875 129.5625 151.898438 C 130.515625 152.765625 131.558594 153.519531 132.667969 154.160156 C 133.332031 154.550781 134.011719 154.886719 134.714844 155.175781 C 136.753906 156.042969 138.953125 156.519531 141.164062 156.585938 C 141.628906 156.597656 141.65625 155.894531 141.175781 155.878906 Z M 128.792969 155.542969 C 129.183594 155.84375 129.585938 156.121094 130 156.394531 L 130.980469 153.507812 C 130.578125 153.21875 130.175781 152.902344 129.800781 152.578125 L 128.792969 155.542969 " fill-opacity="1" fill-rule="nonzero"/></g><g fill="#262626" fill-opacity="1"><g transform="translate(19.819927, 184.511199)"><g/></g></g><g fill="#262626" fill-opacity="1"><g transform="translate(22.503134, 192.563279)"><g><path d="M 19.859375 8.5 C 18.929688 8.945312 17.953125 9.148438 16.921875 9.109375 C 15.898438 9.066406 14.894531 8.691406 13.90625 7.984375 C 12.925781 7.273438 12.078125 6.175781 11.359375 4.6875 L 9.765625 1.375 L 2.390625 4.9375 L 0.953125 1.953125 L 19.125 -6.828125 L 22.15625 -0.53125 C 22.832031 0.851562 23.164062 2.144531 23.15625 3.34375 C 23.144531 4.539062 22.84375 5.578125 22.25 6.453125 C 21.664062 7.328125 20.867188 8.007812 19.859375 8.5 Z M 13.78125 3.515625 C 14.320312 4.640625 14.988281 5.351562 15.78125 5.65625 C 16.570312 5.96875 17.4375 5.894531 18.375 5.4375 C 20.351562 4.476562 20.800781 2.878906 19.71875 0.640625 L 18.125 -2.671875 L 12.1875 0.203125 Z M 13.78125 3.515625 "/></g></g></g><g fill="#262626" fill-opacity="1"><g transform="translate(30.696306, 208.805564)"><g><path d="M 20.046875 -6 L 2.890625 4.65625 L 1.140625 1.84375 L 18.296875 -8.8125 Z M 20.046875 -6 "/></g></g></g><g fill="#262626" fill-opacity="1"><g transform="translate(35.056695, 216.28143)"><g><path d="M 7.828125 9.96875 L 11.3125 1.3125 L 9.75 -0.671875 L 3.390625 4.3125 L 1.34375 1.703125 L 17.21875 -10.765625 L 21.53125 -5.265625 C 22.476562 -4.054688 23.070312 -2.859375 23.3125 -1.671875 C 23.550781 -0.492188 23.476562 0.582031 23.09375 1.5625 C 22.707031 2.539062 22.070312 3.378906 21.1875 4.078125 C 20.15625 4.890625 18.976562 5.328125 17.65625 5.390625 C 16.34375 5.453125 15.039062 4.984375 13.75 3.984375 L 10.25 13.0625 Z M 11.828125 -2.3125 L 14.09375 0.578125 C 14.851562 1.554688 15.664062 2.097656 16.53125 2.203125 C 17.40625 2.316406 18.253906 2.050781 19.078125 1.40625 C 19.898438 0.757812 20.351562 0.0078125 20.4375 -0.84375 C 20.519531 -1.695312 20.175781 -2.613281 19.40625 -3.59375 L 17.140625 -6.484375 Z M 11.828125 -2.3125 "/></g></g></g><g fill="#262626" fill-opacity="1"><g transform="translate(47.323319, 231.848027)"><g><path d="M 13.359375 6.640625 L 7.125 0.9375 L 3.265625 3 L 0.71875 0.671875 L 19.734375 -9.34375 L 22.546875 -6.765625 L 14.203125 13.03125 L 11.640625 10.671875 Z M 14.5 4.046875 L 18.421875 -5.078125 L 9.640625 -0.421875 Z M 14.5 4.046875 "/></g></g></g><g fill="#262626" fill-opacity="1"><g transform="translate(63.432863, 246.320962)"><g><path d="M 7.265625 5.03125 C 6.128906 4.28125 5.238281 3.410156 4.59375 2.421875 C 3.957031 1.429688 3.617188 0.398438 3.578125 -0.671875 C 3.535156 -1.742188 3.832031 -2.765625 4.46875 -3.734375 L 7.4375 -1.78125 C 7.019531 -1.007812 6.910156 -0.222656 7.109375 0.578125 C 7.304688 1.390625 7.867188 2.097656 8.796875 2.703125 C 9.753906 3.328125 10.648438 3.585938 11.484375 3.484375 C 12.316406 3.378906 12.972656 2.960938 13.453125 2.234375 C 13.828125 1.660156 13.960938 1.085938 13.859375 0.515625 C 13.765625 -0.0546875 13.535156 -0.601562 13.171875 -1.125 C 12.816406 -1.644531 12.273438 -2.300781 11.546875 -3.09375 C 10.628906 -4.113281 9.925781 -5 9.4375 -5.75 C 8.945312 -6.507812 8.671875 -7.363281 8.609375 -8.3125 C 8.546875 -9.257812 8.863281 -10.257812 9.5625 -11.3125 C 10.195312 -12.269531 10.992188 -12.953125 11.953125 -13.359375 C 12.910156 -13.773438 13.953125 -13.890625 15.078125 -13.703125 C 16.210938 -13.523438 17.351562 -13.054688 18.5 -12.296875 C 20.132812 -11.222656 21.203125 -9.929688 21.703125 -8.421875 C 22.210938 -6.921875 22.054688 -5.421875 21.234375 -3.921875 L 18.171875 -5.9375 C 18.535156 -6.570312 18.59375 -7.285156 18.34375 -8.078125 C 18.09375 -8.867188 17.535156 -9.550781 16.671875 -10.125 C 15.867188 -10.65625 15.082031 -10.878906 14.3125 -10.796875 C 13.550781 -10.722656 12.921875 -10.3125 12.421875 -9.5625 C 12.078125 -9.039062 11.953125 -8.507812 12.046875 -7.96875 C 12.148438 -7.425781 12.378906 -6.898438 12.734375 -6.390625 C 13.097656 -5.878906 13.625 -5.234375 14.3125 -4.453125 C 15.21875 -3.398438 15.921875 -2.488281 16.421875 -1.71875 C 16.929688 -0.957031 17.21875 -0.0976562 17.28125 0.859375 C 17.351562 1.828125 17.035156 2.84375 16.328125 3.90625 C 15.765625 4.757812 15.003906 5.414062 14.046875 5.875 C 13.085938 6.332031 12.015625 6.503906 10.828125 6.390625 C 9.648438 6.273438 8.460938 5.820312 7.265625 5.03125 Z M 7.265625 5.03125 "/></g></g></g><g fill="#262626" fill-opacity="1"><g transform="translate(79.23195, 256.618107)"><g><path d="M 7.921875 3.90625 C 6.703125 3.332031 5.695312 2.601562 4.90625 1.71875 C 4.125 0.832031 3.632812 -0.132812 3.4375 -1.1875 C 3.238281 -2.238281 3.382812 -3.296875 3.875 -4.359375 L 7.09375 -2.859375 C 6.789062 -2.035156 6.796875 -1.238281 7.109375 -0.46875 C 7.421875 0.289062 8.078125 0.90625 9.078125 1.375 C 10.117188 1.851562 11.046875 1.976562 11.859375 1.75 C 12.679688 1.519531 13.273438 1.007812 13.640625 0.21875 C 13.929688 -0.394531 13.984375 -0.976562 13.796875 -1.53125 C 13.609375 -2.082031 13.296875 -2.585938 12.859375 -3.046875 C 12.421875 -3.515625 11.789062 -4.09375 10.96875 -4.78125 C 9.914062 -5.65625 9.085938 -6.425781 8.484375 -7.09375 C 7.890625 -7.757812 7.488281 -8.554688 7.28125 -9.484375 C 7.082031 -10.421875 7.25 -11.460938 7.78125 -12.609375 C 8.269531 -13.648438 8.957031 -14.441406 9.84375 -14.984375 C 10.726562 -15.535156 11.742188 -15.800781 12.890625 -15.78125 C 14.046875 -15.757812 15.242188 -15.460938 16.484375 -14.890625 C 18.265625 -14.066406 19.515625 -12.945312 20.234375 -11.53125 C 20.953125 -10.125 21.007812 -8.617188 20.40625 -7.015625 L 17.09375 -8.546875 C 17.363281 -9.234375 17.316406 -9.945312 16.953125 -10.6875 C 16.585938 -11.4375 15.929688 -12.03125 14.984375 -12.46875 C 14.117188 -12.875 13.3125 -12.984375 12.5625 -12.796875 C 11.820312 -12.609375 11.257812 -12.101562 10.875 -11.28125 C 10.613281 -10.71875 10.570312 -10.175781 10.75 -9.65625 C 10.925781 -9.144531 11.222656 -8.660156 11.640625 -8.203125 C 12.066406 -7.753906 12.679688 -7.191406 13.484375 -6.515625 C 14.546875 -5.609375 15.382812 -4.8125 16 -4.125 C 16.613281 -3.445312 17.023438 -2.632812 17.234375 -1.6875 C 17.441406 -0.75 17.273438 0.300781 16.734375 1.46875 C 16.304688 2.394531 15.648438 3.15625 14.765625 3.75 C 13.878906 4.34375 12.84375 4.664062 11.65625 4.71875 C 10.476562 4.78125 9.234375 4.507812 7.921875 3.90625 Z M 7.921875 3.90625 "/></g></g></g><g fill="#262626" fill-opacity="1"><g transform="translate(96.438451, 264.593254)"><g><path d="M 10.75 -17.9375 L 7.234375 -5.546875 C 6.828125 -4.085938 6.90625 -2.875 7.46875 -1.90625 C 8.03125 -0.9375 9 -0.253906 10.375 0.140625 C 11.769531 0.535156 12.960938 0.46875 13.953125 -0.0625 C 14.941406 -0.59375 15.640625 -1.585938 16.046875 -3.046875 L 19.5625 -15.4375 L 22.75 -14.546875 L 19.265625 -2.21875 C 18.816406 -0.632812 18.085938 0.609375 17.078125 1.515625 C 16.078125 2.421875 14.921875 2.976562 13.609375 3.1875 C 12.304688 3.40625 10.953125 3.316406 9.546875 2.921875 C 8.148438 2.523438 6.957031 1.894531 5.96875 1.03125 C 4.976562 0.164062 4.304688 -0.90625 3.953125 -2.1875 C 3.597656 -3.476562 3.644531 -4.914062 4.09375 -6.5 L 7.578125 -18.828125 Z M 10.75 -17.9375 "/></g></g></g><g fill="#262626" fill-opacity="1"><g transform="translate(117.239784, 270.383039)"><g><path d="M 18.671875 1.921875 L 15.375 1.59375 L 7 -14.4375 L 5.453125 0.5625 L 2.15625 0.21875 L 4.234375 -19.890625 L 7.53125 -19.546875 L 15.90625 -3.546875 L 17.453125 -18.515625 L 20.75 -18.1875 Z M 18.671875 1.921875 "/></g></g></g><g fill="#262626" fill-opacity="1"><g transform="translate(139.623996, 272.521895)"><g><path d="M 4.015625 -20.515625 L 4.921875 -7.671875 C 5.023438 -6.148438 5.507812 -5.03125 6.375 -4.3125 C 7.238281 -3.601562 8.378906 -3.300781 9.796875 -3.40625 C 11.253906 -3.507812 12.351562 -3.972656 13.09375 -4.796875 C 13.84375 -5.628906 14.164062 -6.804688 14.0625 -8.328125 L 13.15625 -21.171875 L 16.453125 -21.390625 L 17.359375 -8.609375 C 17.472656 -6.960938 17.210938 -5.546875 16.578125 -4.359375 C 15.941406 -3.179688 15.046875 -2.269531 13.890625 -1.625 C 12.734375 -0.976562 11.425781 -0.601562 9.96875 -0.5 C 8.53125 -0.394531 7.191406 -0.582031 5.953125 -1.0625 C 4.722656 -1.539062 3.722656 -2.320312 2.953125 -3.40625 C 2.191406 -4.5 1.753906 -5.867188 1.640625 -7.515625 L 0.734375 -20.296875 Z M 4.015625 -20.515625 "/></g></g></g><g fill="#262626" fill-opacity="1"><g transform="translate(161.1566, 270.916425)"><g><path d="M 18.21875 -4.515625 L 15 -3.71875 L 1.703125 -15.96875 L 5.328125 -1.328125 L 2.109375 -0.515625 L -2.765625 -20.140625 L 0.453125 -20.953125 L 13.75 -8.734375 L 10.125 -23.34375 L 13.34375 -24.140625 Z M 18.21875 -4.515625 "/></g></g></g><g fill="#262626" fill-opacity="1"><g transform="translate(183.064467, 265.396945)"><g><path d="M 9.34375 -20.03125 C 8.4375 -20.726562 7.457031 -21.117188 6.40625 -21.203125 C 5.351562 -21.285156 4.273438 -21.070312 3.171875 -20.5625 C 1.941406 -20.007812 0.972656 -19.242188 0.265625 -18.265625 C -0.429688 -17.285156 -0.820312 -16.171875 -0.90625 -14.921875 C -0.988281 -13.671875 -0.726562 -12.390625 -0.125 -11.078125 C 0.476562 -9.742188 1.28125 -8.695312 2.28125 -7.9375 C 3.28125 -7.175781 4.378906 -6.734375 5.578125 -6.609375 C 6.773438 -6.492188 7.988281 -6.710938 9.21875 -7.265625 C 10.851562 -8.015625 11.96875 -9.082031 12.5625 -10.46875 C 13.164062 -11.851562 13.226562 -13.378906 12.75 -15.046875 L 5.84375 -11.90625 L 4.75 -14.3125 L 14.890625 -18.921875 L 15.953125 -16.5625 C 16.410156 -15.039062 16.503906 -13.492188 16.234375 -11.921875 C 15.960938 -10.359375 15.332031 -8.921875 14.34375 -7.609375 C 13.351562 -6.296875 12.054688 -5.273438 10.453125 -4.546875 C 8.722656 -3.765625 6.957031 -3.445312 5.15625 -3.59375 C 3.363281 -3.75 1.722656 -4.351562 0.234375 -5.40625 C -1.242188 -6.457031 -2.390625 -7.882812 -3.203125 -9.6875 C -4.023438 -11.476562 -4.34375 -13.273438 -4.15625 -15.078125 C -3.96875 -16.890625 -3.335938 -18.523438 -2.265625 -19.984375 C -1.191406 -21.441406 0.203125 -22.554688 1.921875 -23.328125 C 3.867188 -24.222656 5.820312 -24.535156 7.78125 -24.265625 C 9.75 -23.992188 11.476562 -23.132812 12.96875 -21.6875 Z M 9.34375 -20.03125 "/></g></g></g><g fill="#262626" fill-opacity="1"><g transform="translate(204.868038, 255.223868)"><g><path d="M 9.421875 -11.5625 L 2.484375 -6.75 L 3.640625 -2.53125 L 0.8125 -0.5625 L -4.78125 -21.296875 L -1.640625 -23.484375 L 15.84375 -10.984375 L 12.984375 -9 Z M 7.140625 -13.265625 L -0.90625 -19.09375 L 1.71875 -9.5 Z M 7.140625 -13.265625 "/></g></g></g><g fill="#262626" fill-opacity="1"><g transform="translate(222.083228, 242.749934)"><g/></g></g><g fill="#262626" fill-opacity="1"><g transform="translate(228.568086, 237.29315)"><g><path d="M 1.03125 -18.71875 L 3.078125 -16.828125 L -5 -8.03125 L -7.046875 -9.921875 Z M 1.03125 -18.71875 "/></g></g></g><g fill="#262626" fill-opacity="1"><g transform="translate(240.453193, 223.916252)"><g/></g></g><g fill="#262626" fill-opacity="1"><g transform="translate(245.702817, 217.234407)"><g><path d="M 4.65625 -7.484375 C 3.96875 -6.328125 3.144531 -5.398438 2.1875 -4.703125 C 1.226562 -4.015625 0.21875 -3.625 -0.84375 -3.53125 C -1.90625 -3.445312 -2.9375 -3.703125 -3.9375 -4.296875 L -2.140625 -7.34375 C -1.347656 -6.957031 -0.554688 -6.882812 0.234375 -7.125 C 1.023438 -7.363281 1.703125 -7.957031 2.265625 -8.90625 C 2.847656 -9.894531 3.066406 -10.804688 2.921875 -11.640625 C 2.773438 -12.472656 2.320312 -13.113281 1.5625 -13.5625 C 0.976562 -13.90625 0.40625 -14.007812 -0.15625 -13.875 C -0.726562 -13.75 -1.265625 -13.488281 -1.765625 -13.09375 C -2.273438 -12.707031 -2.910156 -12.132812 -3.671875 -11.375 C -4.640625 -10.414062 -5.488281 -9.671875 -6.21875 -9.140625 C -6.945312 -8.617188 -7.78125 -8.300781 -8.71875 -8.1875 C -9.664062 -8.070312 -10.679688 -8.335938 -11.765625 -8.984375 C -12.765625 -9.566406 -13.488281 -10.328125 -13.9375 -11.265625 C -14.394531 -12.210938 -14.554688 -13.253906 -14.421875 -14.390625 C -14.296875 -15.535156 -13.882812 -16.703125 -13.1875 -17.890625 C -12.195312 -19.578125 -10.960938 -20.703125 -9.484375 -21.265625 C -8.003906 -21.835938 -6.492188 -21.753906 -4.953125 -21.015625 L -6.8125 -17.859375 C -7.476562 -18.191406 -8.195312 -18.210938 -8.96875 -17.921875 C -9.738281 -17.640625 -10.390625 -17.050781 -10.921875 -16.15625 C -11.410156 -15.332031 -11.597656 -14.535156 -11.484375 -13.765625 C -11.378906 -13.003906 -10.9375 -12.394531 -10.15625 -11.9375 C -9.625 -11.625 -9.085938 -11.523438 -8.546875 -11.640625 C -8.015625 -11.765625 -7.5 -12.019531 -7 -12.40625 C -6.507812 -12.789062 -5.894531 -13.34375 -5.15625 -14.0625 C -4.15625 -15.03125 -3.28125 -15.785156 -2.53125 -16.328125 C -1.789062 -16.867188 -0.941406 -17.195312 0.015625 -17.3125 C 0.972656 -17.425781 2.003906 -17.15625 3.109375 -16.5 C 3.984375 -15.976562 4.671875 -15.25 5.171875 -14.3125 C 5.679688 -13.375 5.90625 -12.3125 5.84375 -11.125 C 5.789062 -9.9375 5.394531 -8.722656 4.65625 -7.484375 Z M 4.65625 -7.484375 "/></g></g></g><g fill="#262626" fill-opacity="1"><g transform="translate(255.197163, 200.949778)"><g><path d="M -6.984375 -20.4375 C -6.035156 -20.050781 -5.226562 -19.460938 -4.5625 -18.671875 C -3.90625 -17.878906 -3.507812 -16.878906 -3.375 -15.671875 C -3.25 -14.472656 -3.5 -13.109375 -4.125 -11.578125 L -5.515625 -8.171875 L 2.0625 -5.078125 L 0.8125 -2.015625 L -17.890625 -9.625 L -15.25 -16.09375 C -14.664062 -17.519531 -13.921875 -18.632812 -13.015625 -19.4375 C -12.117188 -20.238281 -11.148438 -20.710938 -10.109375 -20.859375 C -9.066406 -21.003906 -8.023438 -20.863281 -6.984375 -20.4375 Z M -6.640625 -12.59375 C -6.171875 -13.75 -6.082031 -14.71875 -6.375 -15.5 C -6.664062 -16.289062 -7.296875 -16.882812 -8.265625 -17.28125 C -10.304688 -18.113281 -11.796875 -17.378906 -12.734375 -15.078125 L -14.125 -11.671875 L -8.03125 -9.1875 Z M -6.640625 -12.59375 "/></g></g></g><g fill="#262626" fill-opacity="1"><g transform="translate(54.060607, 75.844222)"><g><path d="M 6.671875 -13.359375 L 0.953125 -7.140625 L 3 -3.265625 L 0.671875 -0.71875 L -9.328125 -19.734375 L -6.75 -22.546875 L 13.03125 -14.203125 L 10.6875 -11.640625 Z M 4.046875 -14.515625 L -5.078125 -18.421875 L -0.40625 -9.65625 Z M 4.046875 -14.515625 "/></g></g></g><g fill="#262626" fill-opacity="1"><g transform="translate(66.94327, 61.937164)"><g><path d="M -6.734375 -17.078125 L -3.015625 -12.46875 L 2.421875 -16.859375 L 4.125 -14.75 L -1.3125 -10.359375 L 2.5625 -5.546875 L 8.671875 -10.46875 L 10.375 -8.359375 L 1.6875 -1.359375 L -11 -17.09375 L -2.3125 -24.09375 L -0.625 -22 Z M -6.734375 -17.078125 "/></g></g></g><g fill="#262626" fill-opacity="1"><g transform="translate(77.734899, 52.994773)"><g><path d="M 10.890625 -6.484375 L 2.765625 -11.03125 L 0.59375 -9.734375 L 4.71875 -2.796875 L 1.859375 -1.109375 L -8.46875 -18.453125 L -2.453125 -22.03125 C -1.128906 -22.8125 0.132812 -23.242188 1.34375 -23.328125 C 2.550781 -23.421875 3.613281 -23.210938 4.53125 -22.703125 C 5.445312 -22.191406 6.191406 -21.453125 6.765625 -20.484375 C 7.441406 -19.347656 7.722656 -18.125 7.609375 -16.8125 C 7.503906 -15.5 6.867188 -14.269531 5.703125 -13.125 L 14.28125 -8.5 Z M -0.765625 -12.015625 L 2.390625 -13.90625 C 3.453125 -14.53125 4.09375 -15.269531 4.3125 -16.125 C 4.53125 -16.976562 4.375 -17.851562 3.84375 -18.75 C 3.3125 -19.65625 2.628906 -20.203125 1.796875 -20.390625 C 0.960938 -20.578125 0.0078125 -20.351562 -1.0625 -19.71875 L -4.21875 -17.828125 Z M -0.765625 -12.015625 "/></g></g></g><g fill="#262626" fill-opacity="1"><g transform="translate(92.103137, 44.069185)"><g><path d="M 10.71875 -3.859375 C 8.957031 -3.191406 7.179688 -2.988281 5.390625 -3.25 C 3.609375 -3.507812 2.007812 -4.210938 0.59375 -5.359375 C -0.820312 -6.515625 -1.878906 -8.019531 -2.578125 -9.875 C -3.285156 -11.707031 -3.488281 -13.519531 -3.1875 -15.3125 C -2.894531 -17.113281 -2.164062 -18.707031 -1 -20.09375 C 0.15625 -21.476562 1.613281 -22.503906 3.375 -23.171875 C 5.15625 -23.847656 6.9375 -24.050781 8.71875 -23.78125 C 10.507812 -23.519531 12.109375 -22.8125 13.515625 -21.65625 C 14.921875 -20.507812 15.976562 -19.019531 16.6875 -17.1875 C 17.382812 -15.332031 17.585938 -13.503906 17.296875 -11.703125 C 17.015625 -9.910156 16.289062 -8.320312 15.125 -6.9375 C 13.96875 -5.5625 12.5 -4.535156 10.71875 -3.859375 Z M 9.6875 -6.546875 C 10.9375 -7.015625 11.941406 -7.71875 12.703125 -8.65625 C 13.472656 -9.601562 13.929688 -10.710938 14.078125 -11.984375 C 14.222656 -13.253906 14.035156 -14.585938 13.515625 -15.984375 C 12.984375 -17.367188 12.238281 -18.484375 11.28125 -19.328125 C 10.332031 -20.171875 9.257812 -20.6875 8.0625 -20.875 C 6.875 -21.0625 5.65625 -20.921875 4.40625 -20.453125 C 3.15625 -19.972656 2.148438 -19.265625 1.390625 -18.328125 C 0.628906 -17.398438 0.171875 -16.304688 0.015625 -15.046875 C -0.140625 -13.785156 0.046875 -12.460938 0.578125 -11.078125 C 1.097656 -9.679688 1.835938 -8.554688 2.796875 -7.703125 C 3.765625 -6.847656 4.84375 -6.320312 6.03125 -6.125 C 7.21875 -5.925781 8.4375 -6.066406 9.6875 -6.546875 Z M 9.6875 -6.546875 "/></g></g></g><g fill="#262626" fill-opacity="1"><g transform="translate(111.847916, 36.421397)"><g><path d="M -0.671875 -10.171875 C -1.015625 -12.117188 -0.867188 -13.941406 -0.234375 -15.640625 C 0.398438 -17.347656 1.421875 -18.769531 2.828125 -19.90625 C 4.234375 -21.050781 5.863281 -21.785156 7.71875 -22.109375 C 9.832031 -22.472656 11.804688 -22.273438 13.640625 -21.515625 C 15.472656 -20.765625 16.921875 -19.5 17.984375 -17.71875 L 14.0625 -17.03125 C 13.375 -17.988281 12.523438 -18.644531 11.515625 -19 C 10.515625 -19.363281 9.414062 -19.441406 8.21875 -19.234375 C 6.894531 -19.003906 5.769531 -18.503906 4.84375 -17.734375 C 3.914062 -16.972656 3.253906 -15.984375 2.859375 -14.765625 C 2.472656 -13.554688 2.410156 -12.21875 2.671875 -10.75 C 2.921875 -9.289062 3.429688 -8.054688 4.203125 -7.046875 C 4.984375 -6.046875 5.9375 -5.332031 7.0625 -4.90625 C 8.195312 -4.476562 9.425781 -4.378906 10.75 -4.609375 C 11.945312 -4.816406 12.957031 -5.253906 13.78125 -5.921875 C 14.613281 -6.597656 15.195312 -7.507812 15.53125 -8.65625 L 19.453125 -9.34375 C 19.035156 -7.300781 18.09375 -5.617188 16.625 -4.296875 C 15.15625 -2.984375 13.363281 -2.144531 11.25 -1.78125 C 9.382812 -1.457031 7.597656 -1.59375 5.890625 -2.1875 C 4.191406 -2.789062 2.753906 -3.785156 1.578125 -5.171875 C 0.410156 -6.554688 -0.335938 -8.222656 -0.671875 -10.171875 Z M -0.671875 -10.171875 "/></g></g></g><g fill="#262626" fill-opacity="1"><g transform="translate(132.732241, 33.052595)"><g><path d="M 5.421875 -2.796875 L 12.25 -2.953125 L 12.3125 -0.28125 L 2.171875 -0.046875 L 1.703125 -20.234375 L 5.015625 -20.3125 Z M 5.421875 -2.796875 "/></g></g></g><g fill="#262626" fill-opacity="1"><g transform="translate(144.446962, 32.452944)"><g><path d="M 7.765625 -19.421875 L 6.265625 -6.640625 C 6.085938 -5.128906 6.351562 -3.941406 7.0625 -3.078125 C 7.78125 -2.210938 8.847656 -1.695312 10.265625 -1.53125 C 11.710938 -1.363281 12.878906 -1.617188 13.765625 -2.296875 C 14.648438 -2.972656 15.179688 -4.066406 15.359375 -5.578125 L 16.859375 -18.359375 L 20.140625 -17.96875 L 18.65625 -5.25 C 18.457031 -3.613281 17.9375 -2.269531 17.09375 -1.21875 C 16.25 -0.164062 15.195312 0.566406 13.9375 0.984375 C 12.6875 1.398438 11.335938 1.523438 9.890625 1.359375 C 8.453125 1.191406 7.171875 0.757812 6.046875 0.0625 C 4.929688 -0.632812 4.09375 -1.585938 3.53125 -2.796875 C 2.976562 -4.015625 2.800781 -5.441406 3 -7.078125 L 4.484375 -19.796875 Z M 7.765625 -19.421875 "/></g></g></g><g fill="#262626" fill-opacity="1"><g transform="translate(162.989807, 34.573046)"><g><path d="M 15.328125 -6.421875 C 16.316406 -5.921875 17.046875 -5.113281 17.515625 -4 C 17.984375 -2.882812 18.050781 -1.753906 17.71875 -0.609375 C 17.4375 0.390625 16.925781 1.207031 16.1875 1.84375 C 15.445312 2.488281 14.523438 2.898438 13.421875 3.078125 C 12.328125 3.265625 11.140625 3.175781 9.859375 2.8125 L 2.09375 0.59375 L 7.640625 -18.8125 L 15.046875 -16.703125 C 16.367188 -16.316406 17.4375 -15.765625 18.25 -15.046875 C 19.070312 -14.335938 19.617188 -13.535156 19.890625 -12.640625 C 20.160156 -11.753906 20.160156 -10.84375 19.890625 -9.90625 C 19.578125 -8.789062 19.015625 -7.945312 18.203125 -7.375 C 17.390625 -6.800781 16.429688 -6.484375 15.328125 -6.421875 Z M 8.5 -9.75 L 12.421875 -8.625 C 13.472656 -8.320312 14.359375 -8.328125 15.078125 -8.640625 C 15.804688 -8.953125 16.296875 -9.550781 16.546875 -10.4375 C 16.796875 -11.320312 16.695312 -12.09375 16.25 -12.75 C 15.800781 -13.40625 15.050781 -13.882812 14 -14.1875 L 10.078125 -15.3125 Z M 10.328125 0.140625 C 11.390625 0.441406 12.304688 0.421875 13.078125 0.078125 C 13.847656 -0.265625 14.367188 -0.90625 14.640625 -1.84375 C 14.910156 -2.789062 14.796875 -3.632812 14.296875 -4.375 C 13.804688 -5.113281 13.019531 -5.640625 11.9375 -5.953125 L 7.75 -7.15625 L 6.015625 -1.09375 Z M 10.328125 0.140625 "/></g></g></g><g fill="#262626" fill-opacity="1"><g transform="translate(179.408593, 39.285419)"><g><path d="M 12.15625 -13.765625 L 9.734375 -8.359375 L 16.109375 -5.515625 L 15.015625 -3.046875 L 8.640625 -5.890625 L 6.109375 -0.234375 L 13.265625 2.953125 L 12.171875 5.421875 L 1.984375 0.890625 L 10.21875 -17.578125 L 20.40625 -13.046875 L 19.3125 -10.578125 Z M 12.15625 -13.765625 "/></g></g></g><g fill="#262626" fill-opacity="1"><g transform="translate(192.480397, 45.270802)"><g/></g></g><g fill="#262626" fill-opacity="1"><g transform="translate(198.575182, 48.704552)"><g/></g></g><g fill="#262626" fill-opacity="1"><g transform="translate(204.304363, 51.918414)"><g><path d="M 19.703125 -9.828125 C 21.347656 -8.441406 22.523438 -6.914062 23.234375 -5.25 C 23.941406 -3.582031 24.132812 -1.875 23.8125 -0.125 C 23.5 1.625 22.679688 3.285156 21.359375 4.859375 C 20.035156 6.429688 18.550781 7.507812 16.90625 8.09375 C 15.269531 8.6875 13.570312 8.769531 11.8125 8.34375 C 10.0625 7.925781 8.363281 7.023438 6.71875 5.640625 L 1.65625 1.390625 L 14.640625 -14.078125 Z M 8.453125 3.5625 C 10.265625 5.082031 12.0625 5.757812 13.84375 5.59375 C 15.632812 5.425781 17.273438 4.453125 18.765625 2.671875 C 20.273438 0.878906 20.96875 -0.921875 20.84375 -2.734375 C 20.726562 -4.554688 19.765625 -6.226562 17.953125 -7.75 L 15.4375 -9.859375 L 5.9375 1.453125 Z M 8.453125 3.5625 "/></g></g></g><g fill="#262626" fill-opacity="1"><g transform="translate(219.011915, 64.401539)"><g><path d="M 16.78125 -7.4375 L 12.328125 -3.53125 L 16.9375 1.703125 L 14.90625 3.484375 L 10.296875 -1.75 L 5.65625 2.34375 L 10.828125 8.234375 L 8.796875 10.015625 L 1.4375 1.625 L 16.625 -11.734375 L 23.984375 -3.34375 L 21.953125 -1.546875 Z M 16.78125 -7.4375 "/></g></g></g></svg>